<svg width="40" height="40" viewBox="0 0 40 40" fill="none" xmlns="http://www.w3.org/2000/svg">
<path d="M32.4375 9.96875C29.1875 8.35937 24.8906 7.5 20 7.5C15.1094 7.5 10.8125 8.35937 7.5625 9.96875C4.3125 11.5781 2.5 13.875 2.5 16.25V23.75C2.5 26.125 4.34375 28.4219 7.5625 30.0312C10.7812 31.6406 15.1094 32.5 20 32.5C24.8906 32.5 29.1875 31.6406 32.4375 30.0312C35.6875 28.4219 37.5 26.125 37.5 23.75V16.25C37.5 13.875 35.6562 11.5781 32.4375 9.96875ZM20 10C29.7812 10 35 13.625 35 16.25C35 17.7969 33.1719 19.7188 29.625 21.0156H29.5781C27.1562 21.8906 23.9531 22.4844 20 22.4844C16.0469 22.4844 12.8438 21.8906 10.4219 21.0156H10.375C6.82812 19.7188 5 17.7969 5 16.25C5 13.625 10.2188 10 20 10ZM18.75 24.9844V29.9844C15.7812 29.875 13.2812 29.4375 11.25 28.8125V23.9062C13.4844 24.5312 16.0156 24.8906 18.75 24.9844ZM21.25 24.9844C23.9844 24.8906 26.5156 24.5312 28.75 23.9062V28.8125C26.7188 29.4375 24.2188 29.875 21.25 29.9844V24.9844ZM5 23.75V20.8594C5.78649 21.5141 6.64643 22.0751 7.5625 22.5312L8.75 23.0625V27.8125C6.28125 26.5938 5 25.0469 5 23.75ZM31.25 27.8125V23.0625L32.4375 22.5312C33.3536 22.0751 34.2135 21.5141 35 20.8594V23.75C35 25.0469 33.7188 26.5938 31.25 27.8125Z" fill="#222222"/>
</svg>
