<svg width="37" height="37" viewBox="0 0 37 37" fill="none" xmlns="http://www.w3.org/2000/svg">
<mask id="mask0_197_2536" style="mask-type:alpha" maskUnits="userSpaceOnUse" x="0" y="0" width="37" height="37">
<rect width="37" height="37" fill="#D9D9D9"/>
</mask>
<g mask="url(#mask0_197_2536)">
<path d="M10.7916 21.5833C11.2284 21.5833 11.5948 21.4353 11.8908 21.1393C12.1858 20.8444 12.3333 20.4785 12.3333 20.0417C12.3333 19.6049 12.1858 19.2385 11.8908 18.9425C11.5948 18.6475 11.2284 18.5 10.7916 18.5C10.3548 18.5 9.98838 18.6475 9.69238 18.9425C9.39741 19.2385 9.24992 19.6049 9.24992 20.0417C9.24992 20.4785 9.39741 20.8444 9.69238 21.1393C9.98838 21.4353 10.3548 21.5833 10.7916 21.5833ZM10.7916 15.4167C11.2284 15.4167 11.5948 15.2687 11.8908 14.9727C12.1858 14.6777 12.3333 14.3118 12.3333 13.875C12.3333 13.4382 12.1858 13.0718 11.8908 12.7758C11.5948 12.4808 11.2284 12.3333 10.7916 12.3333C10.3548 12.3333 9.98838 12.4808 9.69238 12.7758C9.39741 13.0718 9.24992 13.4382 9.24992 13.875C9.24992 14.3118 9.39741 14.6777 9.69238 14.9727C9.98838 15.2687 10.3548 15.4167 10.7916 15.4167ZM13.8749 21.5833H27.7499V18.5H13.8749V21.5833ZM13.8749 15.4167H27.7499V12.3333H13.8749V15.4167ZM12.3333 32.375V29.2917H6.16659C5.31867 29.2917 4.59306 28.99 3.98975 28.3867C3.38542 27.7824 3.08325 27.0562 3.08325 26.2083V7.70833C3.08325 6.86042 3.38542 6.13429 3.98975 5.52996C4.59306 4.92665 5.31867 4.625 6.16659 4.625H30.8333C31.6812 4.625 32.4073 4.92665 33.0116 5.52996C33.6149 6.13429 33.9166 6.86042 33.9166 7.70833V26.2083C33.9166 27.0562 33.6149 27.7824 33.0116 28.3867C32.4073 28.99 31.6812 29.2917 30.8333 29.2917H24.6666V32.375H12.3333ZM6.16659 26.2083H30.8333V7.70833H6.16659V26.2083Z" fill="#FFB100"/>
</g>
</svg>
