<svg width="40" height="40" viewBox="0 0 40 40" fill="none" xmlns="http://www.w3.org/2000/svg">
<path d="M33.75 5.625H6.25C5.42246 5.62911 4.62999 5.95967 4.04483 6.54483C3.45967 7.12999 3.12911 7.92246 3.125 8.75V28.75C3.12911 29.5775 3.45967 30.37 4.04483 30.9552C4.62999 31.5403 5.42246 31.8709 6.25 31.875H15.1875L17.3281 35.4219C17.5998 35.8893 17.9898 36.2769 18.4588 36.5457C18.9278 36.8145 19.4594 36.955 20 36.9531C20.5423 36.953 21.0753 36.8118 21.5465 36.5433C22.0177 36.2749 22.4109 35.8884 22.6875 35.4219L24.8125 31.875H33.75C34.5775 31.8709 35.37 31.5403 35.9552 30.9552C36.5403 30.37 36.8709 29.5775 36.875 28.75V8.75C36.8709 7.92246 36.5403 7.12999 35.9552 6.54483C35.37 5.95967 34.5775 5.62911 33.75 5.625ZM33.125 28.125H24.4531C23.9153 28.1277 23.3871 28.2685 22.9192 28.5339C22.4514 28.7992 22.0595 29.1803 21.7812 29.6406L20 32.6094L18.2188 29.6406C17.9416 29.1793 17.55 28.7974 17.0819 28.5319C16.6138 28.2663 16.085 28.1262 15.5469 28.125H6.875V9.375H33.125V28.125ZM13.125 18.75C13.125 18.2555 13.2716 17.7722 13.5463 17.3611C13.821 16.95 14.2115 16.6295 14.6683 16.4403C15.1251 16.2511 15.6278 16.2016 16.1127 16.298C16.5977 16.3945 17.0431 16.6326 17.3928 16.9822C17.7424 17.3319 17.9805 17.7773 18.077 18.2623C18.1734 18.7472 18.1239 19.2499 17.9347 19.7067C17.7455 20.1635 17.425 20.554 17.0139 20.8287C16.6028 21.1034 16.1195 21.25 15.625 21.25C14.962 21.25 14.3261 20.9866 13.8572 20.5178C13.3884 20.0489 13.125 19.413 13.125 18.75ZM21.875 18.75C21.875 18.2555 22.0216 17.7722 22.2963 17.3611C22.571 16.95 22.9615 16.6295 23.4183 16.4403C23.8751 16.2511 24.3778 16.2016 24.8627 16.298C25.3477 16.3945 25.7931 16.6326 26.1428 16.9822C26.4924 17.3319 26.7305 17.7773 26.827 18.2623C26.9234 18.7472 26.8739 19.2499 26.6847 19.7067C26.4955 20.1635 26.1751 20.554 25.7639 20.8287C25.3528 21.1034 24.8695 21.25 24.375 21.25C23.712 21.25 23.0761 20.9866 22.6072 20.5178C22.1384 20.0489 21.875 19.413 21.875 18.75Z" fill="#222222"/>
</svg>
