<svg width="37" height="37" viewBox="0 0 37 37" fill="none" xmlns="http://www.w3.org/2000/svg">
<mask id="mask0_197_2542" style="mask-type:alpha" maskUnits="userSpaceOnUse" x="0" y="0" width="37" height="37">
<rect width="37" height="37" fill="#D9D9D9"/>
</mask>
<g mask="url(#mask0_197_2542)">
<path d="M16.9583 23.125H20.0416V18.5H24.6666V15.4167H20.0416V10.7917H16.9583V15.4167H12.3333V18.5H16.9583V23.125ZM12.3333 32.375V29.2917H6.16659C5.31867 29.2917 4.59306 28.99 3.98975 28.3867C3.38542 27.7824 3.08325 27.0562 3.08325 26.2083V7.70833C3.08325 6.86042 3.38542 6.13429 3.98975 5.52996C4.59306 4.92665 5.31867 4.625 6.16659 4.625H30.8333C31.6812 4.625 32.4073 4.92665 33.0116 5.52996C33.6149 6.13429 33.9166 6.86042 33.9166 7.70833V26.2083C33.9166 27.0562 33.6149 27.7824 33.0116 28.3867C32.4073 28.99 31.6812 29.2917 30.8333 29.2917H24.6666V32.375H12.3333ZM6.16659 26.2083H30.8333V7.70833H6.16659V26.2083Z" fill="#FFB100"/>
</g>
</svg>
