<svg xmlns="http://www.w3.org/2000/svg" viewBox="0 0 128.63 78.37"><defs><style>.cls-1{fill:#084fa0;}</style></defs><g id="Layer_2" data-name="Layer 2"><g id="Layer_1-2" data-name="Layer 1"><path class="cls-1" d="M6.57,17.6,8.05,9.28c.19-1.07-.25-1.21-1.15-1V8.15a10.33,10.33,0,0,1,4.2-1.07c1.56,0,2.25.61,1.81,2.45l-1.51,6.2h.11C13.35,8.73,16,7,18.24,7c3.43,0,3.24,2.91,2.8,4.78l-.94,3.92h.11c1.84-7,4.53-8.7,6.73-8.7,3.43,0,3.21,2.88,2.88,4.78l-.66,3.9c-.57,3.46-.65,5.4.55,5.87v.11a10.3,10.3,0,0,1-2,.19c-2.33,0-4.23-.93-3.68-4.42l1.13-7c.22-1.29.16-1.92-.52-1.92-1.24,0-3.08,3.21-4.09,7.31-.47,1.89-1.24,5.29-.31,5.76v.11a17,17,0,0,1-2.39.22c-2.16,0-3.1-.93-2.55-4.31l1.15-7.17c.22-1.29.17-1.92-.52-1.92-1.23,0-3.07,3.21-4.09,7.31-.47,1.89-1.23,5.29-.3,5.76v.11a17,17,0,0,1-2.39.22C7,21.91,6,21,6.57,17.6Z"/><path class="cls-1" d="M31.78,17.46l1.45-8.18c.19-1.07-.22-1.21-1.15-1V8.15a10.33,10.33,0,0,1,4.2-1.07c1.73,0,2.06.75,1.76,2.45l-1.1,6.2c-.61,3.46-.66,5.38.55,5.85v.11a10.47,10.47,0,0,1-2,.19C33.15,21.88,31.14,21,31.78,17.46ZM34.44,5.93a4.14,4.14,0,0,0,0-4,3.6,3.6,0,0,1,3-1.89,2.07,2.07,0,0,1,2.28,2.09c0,2.14-2.47,4-5.3,3.92Z"/><path class="cls-1" d="M39.52,17.6,41,9.28c.19-1.07-.25-1.21-1.15-1V8.15a10.33,10.33,0,0,1,4.2-1.07c1.56,0,2.25.61,1.81,2.45l-1.51,6.2h.11c1.84-7,3.85-8.81,6.54-8.81a3.2,3.2,0,0,1,3.46,3.32,3.41,3.41,0,0,1-3.41,3.63,2.44,2.44,0,0,1-2.66-2.56,2.17,2.17,0,0,0,2-2C50.39,8.37,50,8,49.32,8c-1.7,0-3.38,3.11-4.56,7.86-.46,1.89-1.23,5.29-.3,5.76v.11a17,17,0,0,1-2.39.22C39.9,21.91,38.91,21,39.52,17.6Z"/><path class="cls-1" d="M68.08,15.71c-.61,3.46-.66,5.4.54,5.87v.11a10.3,10.3,0,0,1-2,.19c-2.33,0-4.39-1-3.57-4.42l1-4.23-.11,0c-1.73,6.83-3.84,8.7-6.32,8.7-2.88,0-3.89-2.58-3.89-5.11,0-5,4.33-9.77,9.3-9.77,1.6,0,2.67,1.12,4.26,1.12a3,3,0,0,0,2.25-1Zm-9.39,2.52c0,1.13.24,2.17,1,2.17,1.64,0,3.46-4.2,4.2-8.32l.3-1.67c.22-1.21.47-3.11-1-3.11C60.58,7.3,58.69,13.84,58.69,18.23Z"/><path class="cls-1" d="M75.16,14c0,3.05,1.48,4.58,3.71,4.64a5.48,5.48,0,0,0,4.64-2.12l.19.09c-1.87,3.37-4.83,5.35-8,5.35S70.08,19.63,70.08,16A8.84,8.84,0,0,1,79,7c3.18,0,5.29,1.29,5.29,3.51a2.8,2.8,0,0,1-2.82,2.91A2.15,2.15,0,0,1,79.23,11,2.21,2.21,0,0,0,80.6,9,1.48,1.48,0,0,0,79.06,7.3C76.7,7.3,75.16,11,75.16,14Z"/><path class="cls-1" d="M85.51,17.46,88,2.2c.17-1.07-.24-1.21-1.15-1V1.07A10.17,10.17,0,0,1,91.06,0c1.57,0,2.14.58,1.81,2.44l-2.3,13.29c-.61,3.46-.55,5.38.66,5.85v.11a10.47,10.47,0,0,1-2,.19C86.86,21.88,84.94,21,85.51,17.46Z"/><path class="cls-1" d="M92.9,16A8.84,8.84,0,0,1,101.83,7c2.25,0,5.38.58,5.38,3.13,0,2-2.75,4-8.93,2.88l.06-.25c3.24.25,4.8-2.08,4.8-3.78,0-1-.38-1.71-1.31-1.71C99.52,7.3,98,11,98,14s1.48,4.58,3.71,4.64a5.48,5.48,0,0,0,4.64-2.12l.19.09c-1.87,3.37-4.83,5.35-8,5.35S92.9,19.63,92.9,16Z"/><path class="cls-1" d="M33.93,63.66a16.18,16.18,0,0,1-10.1,3.53h-.19c-1.95,5.88-4.85,10.54-8,10.54-3.43,0-3.17-4.37-2.54-8.37l5.9-36c0-.33.44-4.7-2.28-6.76C13.82,24.47,8.23,25.43,5,30.23a4.57,4.57,0,0,1,2.34.41c3.84,1.86,3.43,9.38,3.4,9.75-.59,9.11-9.07,10-10.51,18.93A17.17,17.17,0,0,0,5.07,74a16.28,16.28,0,0,0,10.41,4.35C26.12,78.37,35.14,70,37.18,60A15.51,15.51,0,0,1,33.93,63.66ZM11.38,29.87a1.06,1.06,0,1,1,1.06-1.06A1.05,1.05,0,0,1,11.38,29.87ZM37.33,52.5a15.61,15.61,0,0,1-12,7.9c-.3,1.61-.67,3.22-1.12,4.78A13.75,13.75,0,0,0,37.52,54h0A14.05,14.05,0,0,0,37.33,52.5Zm-8.72-8.44c-5.26,0-9.83,3.68-13.64,16.49l.58.19c2.09-7.17,5.26-13.19,8.24-13.19,1.65,0,2.35,2.41,2.35,5a40.9,40.9,0,0,1-.44,5.78,13.73,13.73,0,0,0,5.71-2.24,13.94,13.94,0,0,0,5.1-6.56A8.05,8.05,0,0,0,28.61,44.06Z"/><path class="cls-1" d="M39.52,68.09,42.89,49.2c.44-2.48-.51-2.79-2.67-2.35V46.6a23.55,23.55,0,0,1,9.7-2.48c4,0,4.76,1.72,4.06,5.65L51.45,64.1c-1.4,8-1.53,12.43,1.26,13.51v.25A24.11,24.11,0,0,1,48,78.3C42.69,78.3,38.07,76.15,39.52,68.09Zm6.16-26.63c1.33-2.09,2-6.91.06-9.32a8.33,8.33,0,0,1,7-4.38C55.19,27.76,58,29,58,32.58c0,5-5.71,9.32-12.24,9.07Z"/><path class="cls-1" d="M57.41,68.41,60.83,49.2c.45-2.48-.57-2.79-2.66-2.35V46.6a23.55,23.55,0,0,1,9.7-2.48c3.62,0,5.2,1.4,4.19,5.65L68.57,64.1h.25C73.07,48,77.7,43.74,83.92,43.74c5.77,0,8,4.06,8,7.68,0,4.81-3.3,8.37-7.87,8.37-3.61,0-6.21-2.22-6.15-5.9,2.35-.32,4.63-2.09,4.63-4.69,0-2.1-1-3.05-2.47-3.05-3.93,0-7.8,7.17-10.53,18.14-1.08,4.37-2.85,12.24-.7,13.32v.25a39.82,39.82,0,0,1-5.51.51C58.3,78.37,56,76.21,57.41,68.41Z"/><path class="cls-1" d="M90.2,66.57a22.52,22.52,0,0,1,24-22.51l-.06.38c-8.63-.19-12.49,15.28-12.49,25.43,0,2.6.57,5,2.22,5,3.8,0,8.11-9.7,9.64-19.28l3.55-22.77c.38-2.47-.57-2.79-2.67-2.34v-.26a23.71,23.71,0,0,1,9.71-2.47c3.61,0,5.07,1.21,4.31,5.65L123.36,64c-.88,5.51-1.52,12.49,1.27,13.57v.25a24.18,24.18,0,0,1-4.69.44c-5.39,0-10.15-2.28-8.24-10.21L114,58.33l-.25-.07c-4,15.79-8.88,20.11-14.59,20.11C92.54,78.37,90.2,72.41,90.2,66.57Z"/></g></g></svg>