<svg xmlns="http://www.w3.org/2000/svg" viewBox="0 0 203.34 206.66"><defs><style>.cls-1{fill:#fcb017;}.cls-2{fill:#231f20;}</style></defs><g id="Layer_2" data-name="Layer 2"><g id="Layer_1-2" data-name="Layer 1"><path class="cls-1" d="M109.93,140.69c-27-3-48.6-11.6-62.36-21.62C21,99.68,7.88,76.23,3.41,43.87,12.65,59,21.14,67.24,42,75.28,57,81,69,80.08,81.79,86.67a49.73,49.73,0,0,1,15,11.43c.29.29.58.62.83.92C109.35,112.85,109.76,129.88,109.93,140.69Z"/><path class="cls-1" d="M109.93,141.07c.2,12.3-7.59,46.61-8.58,50.13C74.21,179.85,59,200.31,59,200.31,59.46,176.66,86.52,146.74,109.93,141.07Z"/><path class="cls-1" d="M187.69,64.54c-3.89,0-36.54.67-43.5,22.67-7.29,23.12-10.77,47.52-33.35,53.61a5.7,5.7,0,0,1-.91-.13c-.17-10.81-.58-27.84-12.31-41.67-.25-.3-.54-.63-.83-.92,8.66-4,14.3-8.49,14.3-19.1C111,62.31,118,47.93,129.19,43.5c9.12-3.61,20.76-.5,28.09,4.06,8.49,5.34,11.6,12.92,22.62,15.91A32.14,32.14,0,0,0,187.69,64.54Z"/><path class="cls-2" d="M56.75,206.66l.13-6.41c.45-21.22,22.21-48.7,44.77-58.53-21.79-3.41-41.13-10.65-55.29-21C19.87,101.42,6,77.81,1.36,44.16L0,34.29,5.18,42.8C13.86,57,21.69,65.25,42.76,73.35a108.1,108.1,0,0,0,18.51,4.92c7.31,1.45,14.21,2.83,21.48,6.57A53.37,53.37,0,0,1,99.22,97.69c11.34,13.41,12.49,29.75,12.74,40.65,16.82-5.52,21.87-23,27.21-41.48,1-3.41,2-6.86,3.06-10.28,4.79-15.17,20.53-20.81,32.26-22.9-4.49-2.13-7.57-5.08-10.58-8a47.85,47.85,0,0,0-7.73-6.4c-6.72-4.2-17.8-7.2-26.23-3.89-10.14,4-16.89,17.47-16.8,33.54L109,79c-.1-18,7.52-32.72,19.42-37.41,9.82-3.87,22.11-.66,29.95,4.23a51,51,0,0,1,8.4,6.92c3.78,3.61,7.35,7,13.68,8.74a28.45,28.45,0,0,0,7,1,4.51,4.51,0,0,0,.62,0l0,4.14h-.4c-3.7,0-35,.76-41.48,21.22-1.07,3.39-2.06,6.8-3,10.18-4.95,17.17-9.69,33.55-23.46,41.45,3.65.22,7.34.33,11,.33A64.57,64.57,0,0,0,193,58.4l4-1.08a68.69,68.69,0,0,1-66.27,86.62c-6.36,0-12.62-.31-18.73-.91-.53,14-7.75,45.54-8.67,48.73l-.64,2.23-2.15-.9c-25.22-10.54-39.33,7.67-39.92,8.45Zm51.06-62.85c-20.8,6.53-42.26,30.52-46.16,50.85,6.38-5.4,19.58-13.08,38.26-6.26C101.86,180.34,107.14,155.77,107.81,143.81ZM7.1,53.16c5.67,27.44,18.78,47.52,41.7,64.23,14.58,10.63,35.69,18,59,21-.25-10.78-1.32-25.66-11.76-38A48.31,48.31,0,0,0,80.85,88.53c-6.75-3.48-13.37-4.8-20.39-6.2a110.69,110.69,0,0,1-19.18-5.11C23.63,70.43,14.6,63.29,7.1,53.16Z"/><path class="cls-2" d="M66.21,75.29H62.07A68.67,68.67,0,0,1,85.72,23.44l2.71,3.13A64.53,64.53,0,0,0,66.21,75.29Z"/><circle class="cls-2" cx="147.15" cy="57.86" r="4.7"/><path class="cls-2" d="M94.68,26.68,88.27,15.35c-.76-1.34-1.19-2.1-1.9-3.29L91,9.46l5.18,7c2,2.62,4,5.51,5.53,7.59l.28-.16c-1-2.36-2.38-5.61-3.6-8.59L95,7.16,99.36,4.7c.66,1.23,1.1,2,1.89,3.4l6.36,11.22c.75,1.34,1.17,2.07,1.89,3.29L107.11,24c-1.08-2-2.28-4.08-3.39-6s-3.82-6.86-5.36-9.69l-.35.2c1.21,2.85,2.74,6.61,4.12,10l2.78,6.79-3.63,2.06-4.53-5.94c-2.22-2.86-4.62-6.1-6.44-8.54l-.4.23c1.47,2.53,3.9,6.65,5.69,9.8,1,1.74,2.17,3.84,3.31,5.79L96.51,30C96,29,95.44,28,94.68,26.68Z"/><path class="cls-2" d="M107.4,1.06l.86,2.59-2.58.86-.86-2.58Zm.13,8.82c-.49-1.46-.87-2.61-1.21-3.54l2.53-.84c.28,1,.67,2.1,1.17,3.61l2.94,8.8c.47,1.43.83,2.51,1.21,3.54l-2.54.84c-.31-1.05-.68-2.15-1.17-3.61Z"/><path class="cls-2" d="M114.09,8.12c-.29-1.51-.53-2.73-.78-3.92l2-.4.47,2.12a2.85,2.85,0,0,1,2.43-3c2-.39,2.81,1,3.26,3.33.26,1.31.44,2.27.61,3.3l-2.4.53-.58-3c-.29-1.48-.63-1.71-1.48-1.54s-1.29.66-1,2.37l1.66,8.59c.31,1.59.49,2.53.75,3.72l-2.62.51c-.2-1.23-.41-2.29-.68-3.68Z"/><path class="cls-2" d="M124.78,15l0-1.74c-.09-3.43.7-4.49,2.93-4.55A2.92,2.92,0,0,1,130.34,10l-.1-3.71c0-1.63-.52-2-1.59-2s-1.53.47-1.48,2.1v.67l-2.49,0,0-.57c-.09-3.43.93-4.53,3.92-4.61,3.28-.08,4.2.91,4.28,4.07.06,2.3.11,5,.17,7.49.05,1.74.08,3.22.17,5.51l-2.09.06L131,17a3,3,0,0,1-3.07,2.41C125.77,19.45,124.87,18.46,124.78,15Zm5.74-.18,0-1.71c0-1.74-.52-2.11-1.56-2.08s-1.62.54-1.57,2.16l0,1.71c0,1.6.63,2.1,1.68,2.08S130.57,16.48,130.52,14.83Z"/><path class="cls-2" d="M135.56,14.81l1.22-8.26c.48-3.25,1.9-4.36,4.89-3.92s3.88,1.9,3.41,5.14l-.34,2.3-2.51-.29.35-2.38c.24-1.61-.09-2.15-1.24-2.32s-1.68.25-1.92,1.85l-1.21,8.24c-.24,1.61.17,2.2,1.29,2.37s1.68-.29,1.92-1.89l.35-2.35,2.48.45L143.91,16c-.48,3.25-1.81,4.37-4.8,3.93S135.08,18.05,135.56,14.81Z"/><path class="cls-2" d="M150.21,3.6c.42-1.45.77-2.65,1-3.6l2.56.74c-.3.94-.65,2.14-1.08,3.65l-4,13.6c-.42,1.45-.74,2.54-1,3.61l-2.56-.75c.33-1.05.66-2.16,1.08-3.64Z"/><path class="cls-2" d="M151.54,18.27,155,10.64c1.34-3,3-3.68,5.82-2.41s3.38,2.95,2,5.94c-1,2.23-1.52,3.39-2.16,4.76l-4-1.78-1.45-.66L154,19.36c-.65,1.45-.34,2.16.7,2.63s1.8.23,2.45-1.22l.53-1.17,2.25,1.14-.47,1.06c-1.34,3-3,3.68-5.83,2.42S150.2,21.27,151.54,18.27Zm4.68-4,3.05,1.37,1.16-2.6c.67-1.48.56-2.16-.58-2.67s-1.8-.17-2.46,1.31Z"/><path class="cls-2" d="M174.32,16.54c1-1.21,1.75-2.1,2.43-3l3.41,2.85c2.38,2,2.35,3.78.12,6.45l-.76.91c-1.37,1.65-2.42,2.36-3.89,2,.75,1.45.29,2.58-1.18,4.34l-.91,1.09c-2.39,2.88-4.15,3-6.36,1.15l-3.62-3c.71-.8,1.45-1.69,2.43-2.87Zm-2.78,7.53-4.31,5.17,1.11.93c1,.83,1.9.75,3.09-.67l1.15-1.38c1.19-1.42,1.07-2.28.07-3.12Zm5.72-6.85-4.16,5L174,23c1,.83,1.9.75,3.11-.7l1-1.15c1.19-1.43,1.09-2.3.09-3.14Z"/><path class="cls-2" d="M181.31,27.81c1.14-1,2-1.85,2.75-2.53l1.8,2c-.75.64-1.66,1.46-2.84,2.53L176.14,36c-1.11,1-1.95,1.77-2.75,2.54l-1.79-2c.83-.72,1.69-1.5,2.83-2.53Zm8-3.67-2,1.83-1.83-2,2-1.83Z"/><path class="cls-2" d="M185.55,33.08c1.26-.87,2.29-1.58,3.27-2.3L190,32.5l-1.75,1.28a2.84,2.84,0,0,1,3.75,1c1.19,1.71.25,3-1.72,4.33-1.1.76-1.91,1.32-2.78,1.89l-1.45-2,2.5-1.73c1.24-.86,1.31-1.26.82-2s-1.13-.91-2.56.08l-7.2,5c-1.33.93-2.12,1.47-3.1,2.19L175,40.35c1-.68,1.92-1.29,3.09-2.1Z"/><path class="cls-2" d="M183.66,45.94l7.91-3.64c3-1.36,4.54-.68,5.39,1.16a3,3,0,0,1-.31,3.34c2.11-1,4.67-2.34,5.55-2.78l1.14,2.48c-.91.38-2,.88-3.38,1.53L187.09,54c-1.42.65-2.45,1.13-3.47,1.63l-.87-1.9,1.9-.94a3,3,0,0,1-3.56-1.84C180.18,48.92,180.6,47.35,183.66,45.94Zm2.74,5.45L194,47.91c1.58-.73,1.73-1.31,1.21-2.44-.45-1-1.06-1.4-2.51-.73l-7.83,3.6c-1.47.68-1.55,1.42-1.1,2.4S184.79,52.13,186.4,51.39Z"/></g></g></svg>