<svg width="42" height="42" viewBox="0 0 42 42" fill="none" xmlns="http://www.w3.org/2000/svg">
<path d="M26.2499 19.25V19.2675M9.05269 14.6615C8.28514 14.0716 7.69564 13.2809 7.34935 12.3769C7.00306 11.4729 6.91346 10.4908 7.09045 9.53904C7.26744 8.58729 7.70413 7.70302 8.35226 6.98395C9.00039 6.26488 9.83472 5.73901 10.763 5.46446C11.6913 5.18991 12.6775 5.17738 13.6125 5.42825C14.5475 5.67912 15.3949 6.18362 16.0611 6.886C16.7273 7.58837 17.1863 8.46126 17.3874 9.4082C17.5885 10.3551 17.5239 11.3392 17.2007 12.2517" stroke="#FFB100" stroke-width="3.33333" stroke-linecap="round" stroke-linejoin="round"/>
<path d="M27.9997 7V13.6552C30.1656 14.9085 31.8145 16.8918 32.6512 19.25H34.998C35.4621 19.25 35.9072 19.4344 36.2354 19.7626C36.5636 20.0908 36.748 20.5359 36.748 21V24.5C36.748 24.9641 36.5636 25.4092 36.2354 25.7374C35.9072 26.0656 35.4621 26.25 34.998 26.25H32.6495C32.0615 27.9125 31.0622 29.4 29.748 30.5777V34.125C29.748 34.8212 29.4714 35.4889 28.9791 35.9812C28.4869 36.4734 27.8192 36.75 27.123 36.75C26.4268 36.75 25.7591 36.4734 25.2668 35.9812C24.7746 35.4889 24.498 34.8212 24.498 34.125V33.1047C23.9197 33.2016 23.3343 33.2502 22.748 33.25H15.748C15.1616 33.2502 14.5763 33.2016 13.998 33.1047V34.125C13.998 34.8212 13.7214 35.4889 13.2291 35.9812C12.7369 36.4734 12.0692 36.75 11.373 36.75C10.6768 36.75 10.0091 36.4734 9.51683 35.9812C9.02455 35.4889 8.74799 34.8212 8.74799 34.125V30.625L8.74974 30.5777C7.16428 29.1603 6.04663 27.2948 5.54469 25.2282C5.04275 23.1616 5.18019 20.9912 5.93882 19.0045C6.69746 17.0177 8.04152 15.3081 9.79312 14.1019C11.5447 12.8958 13.6213 12.25 15.748 12.25H20.123L27.998 7H27.9997Z" stroke="#FFB100" stroke-width="3.33333" stroke-linecap="round" stroke-linejoin="round"/>
</svg>
