<svg width="40" height="40" viewBox="0 0 40 40" fill="none" xmlns="http://www.w3.org/2000/svg">
<path d="M19.9997 36.6667C17.811 36.6667 15.6437 36.2356 13.6216 35.398C11.5995 34.5604 9.7622 33.3328 8.21456 31.7851C5.08896 28.6595 3.33301 24.4203 3.33301 20C3.33301 15.5797 5.08896 11.3405 8.21456 8.21489C11.3402 5.08928 15.5794 3.33334 19.9997 3.33334C29.1663 3.33334 36.6663 10 36.6663 18.3333C36.6663 20.9855 35.6128 23.529 33.7374 25.4044C31.862 27.2798 29.3185 28.3333 26.6663 28.3333H23.6663C23.1663 28.3333 22.833 28.6667 22.833 29.1667C22.833 29.3333 22.9997 29.5 22.9997 29.6667C23.6663 30.5 23.9997 31.5 23.9997 32.5C24.1663 34.8333 22.333 36.6667 19.9997 36.6667ZM19.9997 6.66667C16.4635 6.66667 13.0721 8.07143 10.5716 10.5719C8.0711 13.0724 6.66634 16.4638 6.66634 20C6.66634 23.5362 8.0711 26.9276 10.5716 29.4281C13.0721 31.9286 16.4635 33.3333 19.9997 33.3333C20.4997 33.3333 20.833 33 20.833 32.5C20.833 32.1667 20.6663 32 20.6663 31.8333C19.9997 31 19.6663 30.1667 19.6663 29.1667C19.6663 26.8333 21.4997 25 23.833 25H26.6663C28.4345 25 30.1301 24.2976 31.3804 23.0474C32.6306 21.7971 33.333 20.1014 33.333 18.3333C33.333 11.8333 27.333 6.66667 19.9997 6.66667ZM10.833 16.6667C12.1663 16.6667 13.333 17.8333 13.333 19.1667C13.333 20.5 12.1663 21.6667 10.833 21.6667C9.49967 21.6667 8.33301 20.5 8.33301 19.1667C8.33301 17.8333 9.49967 16.6667 10.833 16.6667ZM15.833 10C17.1663 10 18.333 11.1667 18.333 12.5C18.333 13.8333 17.1663 15 15.833 15C14.4997 15 13.333 13.8333 13.333 12.5C13.333 11.1667 14.4997 10 15.833 10ZM24.1663 10C25.4997 10 26.6663 11.1667 26.6663 12.5C26.6663 13.8333 25.4997 15 24.1663 15C22.833 15 21.6663 13.8333 21.6663 12.5C21.6663 11.1667 22.833 10 24.1663 10ZM29.1663 16.6667C30.4997 16.6667 31.6663 17.8333 31.6663 19.1667C31.6663 20.5 30.4997 21.6667 29.1663 21.6667C27.833 21.6667 26.6663 20.5 26.6663 19.1667C26.6663 17.8333 27.833 16.6667 29.1663 16.6667Z" fill="#222222"/>
</svg>
