<?xml version="1.0" encoding="utf-8"?>
<!-- Generator: Adobe Illustrator 26.0.1, SVG Export Plug-In . SVG Version: 6.00 Build 0)  -->
<svg version="1.1" id="Layer_1" xmlns="http://www.w3.org/2000/svg" xmlns:xlink="http://www.w3.org/1999/xlink" x="0px" y="0px"
	 viewBox="0 0 48 48" style="enable-background:new 0 0 48 48;" xml:space="preserve">
<style type="text/css">
	.st0{fill:url(#SVGID_1_);}
	.st1{fill:url(#SVGID_00000124846845361403175930000010138428573013175469_);}
	.st2{fill:url(#SVGID_00000040539649596348846060000017503227321878276502_);}
	.st3{fill:url(#SVGID_00000018935741956259769520000001921801334984928959_);}
	.st4{fill:url(#SVGID_00000078042732542768281020000001997342880397710766_);}
	.st5{fill:url(#SVGID_00000070826945551808417490000001208028755754374825_);}
	.st6{fill:url(#SVGID_00000052080378908275669420000017652540356542372247_);}
</style>
<g>
	<linearGradient id="SVGID_1_" gradientUnits="userSpaceOnUse" x1="22.5" y1="5.75" x2="25.5" y2="5.75">
		<stop  offset="0" style="stop-color:#FEB92E"/>
		<stop  offset="1" style="stop-color:#FF645B"/>
	</linearGradient>
	<rect x="22.5" y="2" class="st0" width="3" height="7.5"/>
	
		<linearGradient id="SVGID_00000097473618396777665600000005952509485984783007_" gradientUnits="userSpaceOnUse" x1="33.2" y1="11.075" x2="40.6" y2="11.075">
		<stop  offset="0" style="stop-color:#FEB92E"/>
		<stop  offset="1" style="stop-color:#FF645B"/>
	</linearGradient>
	<polygon style="fill:url(#SVGID_00000097473618396777665600000005952509485984783007_);" points="35.3,14.8 33.2,12.6 38.5,7.3 
		40.6,9.5 	"/>
	
		<linearGradient id="SVGID_00000085953071201676281000000008755847242515470757_" gradientUnits="userSpaceOnUse" x1="38.5" y1="24" x2="46" y2="24">
		<stop  offset="0" style="stop-color:#FEB92E"/>
		<stop  offset="1" style="stop-color:#FF645B"/>
	</linearGradient>
	<rect x="38.5" y="22.5" style="fill:url(#SVGID_00000085953071201676281000000008755847242515470757_);" width="7.5" height="3"/>
	
		<linearGradient id="SVGID_00000158750141359583674920000003780162607493198776_" gradientUnits="userSpaceOnUse" x1="33.25" y1="36.875" x2="40.7" y2="36.875">
		<stop  offset="0" style="stop-color:#FEB92E"/>
		<stop  offset="1" style="stop-color:#FF645B"/>
	</linearGradient>
	<polygon style="fill:url(#SVGID_00000158750141359583674920000003780162607493198776_);" points="38.5,40.6 33.2,35.3 35.4,33.1 
		40.7,38.4 	"/>
	
		<linearGradient id="SVGID_00000116232538233204076390000017907551328918561710_" gradientUnits="userSpaceOnUse" x1="7.4" y1="11.1" x2="14.8" y2="11.1">
		<stop  offset="0" style="stop-color:#FEB92E"/>
		<stop  offset="1" style="stop-color:#FF645B"/>
	</linearGradient>
	<polygon style="fill:url(#SVGID_00000116232538233204076390000017907551328918561710_);" points="12.7,14.8 7.4,9.5 9.5,7.4 
		14.8,12.7 	"/>
	
		<linearGradient id="SVGID_00000165930203424303612070000009414829952840889994_" gradientUnits="userSpaceOnUse" x1="12" y1="24" x2="36" y2="24">
		<stop  offset="0" style="stop-color:#FEB92E"/>
		<stop  offset="1" style="stop-color:#FF645B"/>
	</linearGradient>
	<circle style="fill:url(#SVGID_00000165930203424303612070000009414829952840889994_);" cx="24" cy="24" r="12"/>
</g>
<linearGradient id="SVGID_00000129200776584454071960000007918213123606195355_" gradientUnits="userSpaceOnUse" x1="1.5456" y1="31.2168" x2="28.3544" y2="31.2168">
	<stop  offset="0" style="stop-color:#40BAEB"/>
	<stop  offset="1" style="stop-color:#5864AE"/>
</linearGradient>
<path style="fill:url(#SVGID_00000129200776584454071960000007918213123606195355_);" d="M28.4,35.2c0,1.5-0.5,2.7-1.6,3.8
	c-1.1,1-2.3,1.6-3.8,1.6H10.9c-2.6,0-4.8-0.9-6.6-2.7s-2.7-4-2.7-6.6s0.9-4.8,2.7-6.6c0.9-0.9,1.9-1.6,3-2.1
	c0.4-0.2,1.8-0.7,3.6-0.7c0.6,0,4.2,0,6.8,2.8c1.9,2,2.3,4.2,2.4,5.2h2.9c1.5,0,2.7,0.5,3.8,1.6C27.8,32.5,28.4,33.8,28.4,35.2z"/>
</svg>
