<?xml version="1.0" encoding="utf-8"?>
<!-- Generator: Adobe Illustrator 26.0.1, SVG Export Plug-In . SVG Version: 6.00 Build 0)  -->
<svg version="1.1" id="Layer_1" xmlns="http://www.w3.org/2000/svg" xmlns:xlink="http://www.w3.org/1999/xlink" x="0px" y="0px"
	 viewBox="0 0 48 48" style="enable-background:new 0 0 48 48;" xml:space="preserve">
<style type="text/css">
	.st0{fill:url(#SVGID_1_);}
	.st1{fill:url(#SVGID_00000093144303137096582530000005943382993857814157_);}
</style>
<g>
	<linearGradient id="SVGID_1_" gradientUnits="userSpaceOnUse" x1="10.2614" y1="39" x2="40.6964" y2="39">
		<stop  offset="0" style="stop-color:#40BAEB"/>
		<stop  offset="1" style="stop-color:#5864AE"/>
	</linearGradient>
	<path class="st0" d="M16.6,41.8l-3.4-7c-0.2-0.4-0.5-0.6-0.9-0.7c-0.4-0.1-0.8-0.1-1.2,0.1s-0.6,0.5-0.8,0.9
		c-0.1,0.4-0.1,0.8,0.1,1.2l3.4,6.9c0.2,0.4,0.5,0.6,0.9,0.7c0.4,0.1,0.8,0.1,1.2-0.1s0.6-0.5,0.8-0.8
		C16.8,42.5,16.8,42.2,16.6,41.8z M40.5,41.8l-3.5-6.9c-0.2-0.4-0.5-0.6-0.9-0.8C35.8,34,35.4,34,35,34.2c-0.4,0.2-0.6,0.5-0.7,0.9
		c-0.1,0.4-0.1,0.8,0.1,1.2l3.4,6.9c0.2,0.4,0.5,0.6,0.9,0.8c0.4,0.1,0.8,0.1,1.2,0s0.6-0.5,0.7-0.9C40.7,42.5,40.7,42.1,40.5,41.8z
		 M28.5,41.8l-3.5-6.9c-0.2-0.4-0.5-0.6-0.9-0.8c-0.4-0.1-0.8-0.1-1.2,0s-0.6,0.5-0.7,0.9c-0.1,0.4-0.1,0.8,0.1,1.2l3.4,6.9
		c0.2,0.4,0.5,0.6,0.9,0.8c0.4,0.1,0.8,0.1,1.2-0.1c0.4-0.2,0.6-0.5,0.7-0.9C28.7,42.6,28.7,42.2,28.5,41.8z"/>
	
		<linearGradient id="SVGID_00000003800120465243864990000003449978419034015897_" gradientUnits="userSpaceOnUse" x1="4.2709" y1="17.5" x2="43.7291" y2="17.5">
		<stop  offset="0" style="stop-color:#40BAEB"/>
		<stop  offset="1" style="stop-color:#5864AE"/>
	</linearGradient>
	<path style="fill:url(#SVGID_00000003800120465243864990000003449978419034015897_);" d="M43.7,23.3c0,1.7-0.6,3.2-1.9,4.5
		c-1.2,1.3-2.8,1.9-4.5,1.9H13c-2.4,0-4.4-0.8-6.2-2.6c-1.7-1.7-2.6-3.7-2.6-6.2c0-2.4,0.8-4.4,2.5-6.1c1.7-1.7,3.7-2.6,6.1-2.6h1.6
		l0.5-1c0.8-1.8,2-3.3,3.6-4.3C20.2,5.8,22,5.3,24,5.3c2.8,0,5.1,1,7,2.9c1.9,1.9,2.9,4.2,2.9,7v1.7h3.5c1.8,0,3.3,0.6,4.5,1.9
		C43.1,20,43.7,21.5,43.7,23.3z"/>
</g>
</svg>
