<svg width="38" height="38" viewBox="0 0 38 38" fill="none" xmlns="http://www.w3.org/2000/svg">
<mask id="mask0_197_2549" style="mask-type:alpha" maskUnits="userSpaceOnUse" x="0" y="0" width="38" height="38">
<rect width="37.64" height="37.64" fill="#D9D9D9"/>
</mask>
<g mask="url(#mask0_197_2549)">
<path d="M30.7393 32.9351L20.8588 23.0546C20.0746 23.6819 19.1728 24.1785 18.1534 24.5445C17.134 24.9104 16.0492 25.0934 14.8991 25.0934C12.05 25.0934 9.63893 24.1069 7.66597 22.134C5.69196 20.16 4.70496 17.7484 4.70496 14.8992C4.70496 12.0501 5.69196 9.63853 7.66597 7.66452C9.63893 5.69156 12.05 4.70508 14.8991 4.70508C17.7483 4.70508 20.1598 5.69156 22.1338 7.66452C24.1068 9.63853 25.0933 12.0501 25.0933 14.8992C25.0933 16.0494 24.9103 17.1341 24.5444 18.1535C24.1784 19.173 23.6818 20.0747 23.0545 20.8589L32.935 30.7394L30.7393 32.9351ZM14.8991 21.9567C16.8595 21.9567 18.5262 21.2709 19.899 19.8991C21.2707 18.5263 21.9566 16.8597 21.9566 14.8992C21.9566 12.9388 21.2707 11.2722 19.899 9.8994C18.5262 8.52763 16.8595 7.84174 14.8991 7.84174C12.9387 7.84174 11.2721 8.52763 9.89928 9.8994C8.52751 11.2722 7.84162 12.9388 7.84162 14.8992C7.84162 16.8597 8.52751 18.5263 9.89928 19.8991C11.2721 21.2709 12.9387 21.9567 14.8991 21.9567Z" fill="#FFB100"/>
</g>
</svg>
