<?xml version="1.0" encoding="utf-8"?>
<!-- Generator: Adobe Illustrator 26.0.1, SVG Export Plug-In . SVG Version: 6.00 Build 0)  -->
<svg version="1.1" id="Layer_1" xmlns="http://www.w3.org/2000/svg" xmlns:xlink="http://www.w3.org/1999/xlink" x="0px" y="0px"
	 viewBox="0 0 48 48" style="enable-background:new 0 0 48 48;" xml:space="preserve">
<style type="text/css">
	.st0{fill:url(#SVGID_1_);}
	.st1{fill:url(#SVGID_00000111175072376385058490000017017108489159783082_);}
</style>
<linearGradient id="SVGID_1_" gradientUnits="userSpaceOnUse" x1="2" y1="24" x2="46" y2="24">
	<stop  offset="0" style="stop-color:#FEB92E"/>
	<stop  offset="1" style="stop-color:#FF645B"/>
</linearGradient>
<path class="st0" d="M13.8,34.2l-1.1-1l-5.2,5.2l2.1,2.1l5.3-5.3L13.8,34.2z M2,22.5v3h7.5v-3H2z M35.2,33.2l-2,2l5.3,5.3l2.1-2.1
	L35.2,33.2z M9.5,7.4L7.4,9.5l5.2,5.2l2.1-2L9.5,7.4z M22.5,38.5V46h3v-7.5H22.5z M38.5,22.5v3H46v-3H38.5z M38.5,7.3l-5.3,5.4
	l2.1,2.1l5.3-5.3L38.5,7.3z M22.5,2v7.5h3V2H22.5z"/>
<linearGradient id="SVGID_00000080926321940634846100000011416976603332983974_" gradientUnits="userSpaceOnUse" x1="24" y1="12" x2="24" y2="36">
	<stop  offset="0" style="stop-color:#FEB92E"/>
	<stop  offset="1" style="stop-color:#FF645B"/>
</linearGradient>
<path style="fill:url(#SVGID_00000080926321940634846100000011416976603332983974_);" d="M36,24c0,3.3-1.2,6.2-3.5,8.5
	S27.3,36,24,36s-6.2-1.2-8.5-3.5S12,27.3,12,24s1.2-6.2,3.5-8.5S20.7,12,24,12s6.2,1.2,8.5,3.5S36,20.7,36,24z"/>
</svg>
