<svg width="37" height="37" viewBox="0 0 37 37" fill="none" xmlns="http://www.w3.org/2000/svg">
<mask id="mask0_197_2530" style="mask-type:alpha" maskUnits="userSpaceOnUse" x="0" y="0" width="37" height="37">
<rect width="37" height="37" fill="#D9D9D9"/>
</mask>
<g mask="url(#mask0_197_2530)">
<path d="M15.4166 32.3749L21.5833 26.2083H33.9166V32.3749H15.4166ZM6.16659 29.2916H8.32492L21.6218 15.9947L19.4635 13.8364L6.16659 27.1333V29.2916ZM28.2124 13.7593L21.6603 7.28429L23.8187 5.12596C24.4096 4.53499 25.1358 4.2395 25.997 4.2395C26.8573 4.2395 27.5829 4.53499 28.1739 5.12596L30.3322 7.28429C30.9232 7.87527 31.2315 8.58854 31.2572 9.42413C31.2829 10.2587 31.0003 10.9714 30.4093 11.5624L28.2124 13.7593ZM25.977 16.0333L9.63534 32.3749H3.08325V25.8228L19.4249 9.48117L25.977 16.0333Z" fill="#FFB100"/>
</g>
</svg>
