<svg width="28" height="28" viewBox="0 0 28 28" fill="none" xmlns="http://www.w3.org/2000/svg">
<path d="M25.2417 2.12942C17.141 9.02633 12.7143 20.2969 11.5015 26.9336H15.7244C17.4523 20.2346 18.5208 12.5238 25.2418 2.12936L25.2417 2.12942ZM4.28613 4.99701C7.15159 8.43117 9.88121 12.2404 12.0569 15.8951C12.4479 16.5521 12.8273 17.2159 13.1949 17.8862C13.635 16.8082 14.111 15.7452 14.622 14.6989C11.7883 10.8035 8.41695 7.31582 4.28608 4.99707L4.28613 4.99701ZM25.6792 12.3098C22.858 14.8527 21.3668 18.569 20.7249 22.7363C21.4782 24.1491 22.1852 25.5415 22.8542 26.8857H25.0075C23.6266 22.9777 24.3766 18.0066 25.6792 12.3098ZM3.66406 13.1489C7.65417 17.1553 10.27 23.463 8.0442 26.8634H10.5051C10.7509 25.4897 11.1253 23.9304 11.6365 22.256C10.6279 17.6466 7.18703 13.2851 3.66406 13.1491V13.1489ZM1.86621 17.9579C4.76574 22.3841 5.2407 24.792 4.10501 26.8499H7.79641C7.08001 22.9113 6.07682 20.4895 1.86621 17.958V17.9579ZM18.3238 20.4514C17.7413 22.7132 17.2744 24.8503 16.748 26.9182H21.764C20.717 24.8244 19.5809 22.6311 18.3237 20.4514H18.3238Z" fill="#FFB100"/>
</svg>
